<svg id="sirkadirov-logo-nobg" xmlns="http://www.w3.org/2000/svg" viewBox="0 0 700 700"><defs><style>.cls-1{fill:#212121;}.cls-2{fill:#ff6700;}.cls-3{fill:#fff;}.cls-4{fill:none;}</style></defs><title>sirkadirov-logo-nobg</title><g id="s-logo"><polygon class="cls-1" points="342.53 3.66 23.4 662.52 661.66 662.52 342.53 3.66"/><path class="cls-2" d="M342.53,7.16q-19.75,42.66-39.14,85.07L265,176.91c-25.38,56.28-50.18,112.34-74.8,167.7S141.29,455,116.89,509.53,68,618.2,43.28,672.15L23.4,640.44q79.79-1.76,159.56-3.14l159.57-2.77,39.89-.75,39.89-.9,79.78-2.14,79.78-2.23q39.9-1.14,79.79-1.79l-32.23,51.41c-13.12-26-26-52-38.35-78.23s-24.43-52.48-36.19-79c-23.46-53.14-46.05-107.08-68.63-162.52S441,246,417.3,187.52l-18-44.15L380.89,98.63,362,53.3Zm0-7,41.41,73.25L405.42,111l21.9,38.21c29.48,51.31,60,104.2,90.6,158.6s61.21,110.24,90.94,166.91q22.25,42.54,43.59,85.68t41.43,86.49l.47,1A35.41,35.41,0,0,1,677.25,695a36,36,0,0,1-15.59,3.32q-39.9-.69-79.79-1.79l-79.78-2.23-79.78-2.13-39.89-.91-39.89-.74L183,687.75q-79.77-1.51-159.56-3.14l-.92,0A21.81,21.81,0,0,1,1.15,662.31a22.16,22.16,0,0,1,2.37-9.41q42.65-83.79,86-166.81c28.79-55.3,57.7-110.11,86.28-164.51s56.95-108.21,84.76-161.73l41.38-80Q322.38,39.92,342.53.16Z"/><path class="cls-3" d="M286.74,554.76q-23-11.21-34.82-29.63a77.27,77.27,0,0,1-12.51-40.05,8.57,8.57,0,0,1,2.2-6,6.86,6.86,0,0,1,5.24-2.4h45a12.26,12.26,0,0,1,6.6,1.6,23.29,23.29,0,0,1,5.58,5.61,37.52,37.52,0,0,0,13.69,15.82q9.29,6.21,24.85,6.2,18.25,0,28.06-6.6t9.8-18.22q0-8.41-5.07-13.82t-16.23-9.61q-11.14-4.22-32.11-9.41-40.92-9.62-61.2-29.24t-20.29-56.06q0-24.84,11.67-44.26t33.13-30.23q21.46-10.81,49.87-10.82,29.74,0,51.56,12.22t33.47,30.43q11.67,18.24,12.34,35.85a9.73,9.73,0,0,1-2,6.2,6.18,6.18,0,0,1-5.07,2.61H383.1q-7.44,0-11.5-7.21-2-8.42-10.48-14.22t-21-5.8q-14.21,0-22,6t-7.78,17.62q0,11.63,10.14,18.23T358.42,393q31.77,6.81,50.54,17t27.73,26.43q9,16.23,9,41.05,0,27.24-13.19,47.26T396,555.36Q372.61,566,342.53,566,309.73,566,286.74,554.76Z"/><rect class="cls-4" width="700" height="700"/></g></svg>